<svg width="99" height="99" viewBox="0 0 99 99" fill="none" xmlns="http://www.w3.org/2000/svg">
<path d="M49.5 0.519714C22.5025 0.519714 0.619324 22.4029 0.619324 49.4004C0.619324 76.3979 22.5025 98.2811 49.5 98.2811C76.4975 98.2811 98.3807 76.3979 98.3807 49.4004C98.3807 22.4029 76.4975 0.519714 49.5 0.519714ZM49.5 94.5204C24.6195 94.5204 4.38 74.2808 4.38 49.4004C4.38 24.5199 24.6195 4.28039 49.5 4.28039C74.3805 4.28039 94.62 24.5199 94.62 49.4004C94.62 74.2808 74.3805 94.5204 49.5 94.5204Z" fill="#9CCF8C"/>
<path d="M60.78 36.2407C60.78 24.8215 49.5 15.56 49.5 15.56C49.5 15.56 38.22 24.8211 38.22 36.2407C38.22 47.6599 43.2738 53.1607 49.5 53.1607C55.7261 53.1607 60.78 47.6593 60.78 36.2407Z" fill="#9CCF8C"/>
<path d="M16.3287 49.4C16.3287 49.4 14.8998 63.921 22.9767 71.9983C31.0535 80.0755 38.5127 80.3906 42.9157 75.9875C47.3228 71.5845 47.0025 64.1244 38.9264 56.0485C30.8495 47.9717 16.3281 49.4006 16.3281 49.4006L16.3287 49.4Z" fill="#9CCF8C"/>
<path d="M60.077 56.0471C52.0042 64.12 51.6847 71.5831 56.0877 75.9861C60.4907 80.3932 67.9509 80.0729 76.0267 71.9968C84.1036 63.92 82.6747 49.3986 82.6747 49.3986C82.6747 49.3986 68.1499 47.9697 60.0764 56.0465L60.077 56.0471Z" fill="#9CCF8C"/>
</svg>
