<svg width="141" height="141" viewBox="0 0 141 141" fill="none" xmlns="http://www.w3.org/2000/svg">
<path d="M70.5 7.51971C43.5025 7.51971 21.6193 29.4029 21.6193 56.4004C21.6193 83.3979 43.5025 105.281 70.5 105.281C97.4975 105.281 119.381 83.3979 119.381 56.4004C119.381 29.4029 97.4975 7.51971 70.5 7.51971ZM70.5 101.52C45.6195 101.52 25.38 81.2808 25.38 56.4004C25.38 31.5199 45.6195 11.2804 70.5 11.2804C95.3805 11.2804 115.62 31.5199 115.62 56.4004C115.62 81.2808 95.3805 101.52 70.5 101.52Z" fill="black"/>
<path d="M81.78 43.2407C81.78 31.8215 70.5 22.56 70.5 22.56C70.5 22.56 59.22 31.8211 59.22 43.2407C59.22 54.6599 64.2738 60.1607 70.5 60.1607C76.7261 60.1607 81.78 54.6593 81.78 43.2407Z" fill="black"/>
<path d="M37.3287 56.4C37.3287 56.4 35.8998 70.921 43.9767 78.9983C52.0535 87.0755 59.5127 87.3906 63.9157 82.9875C68.3228 78.5845 68.0025 71.1244 59.9264 63.0485C51.8495 54.9717 37.3281 56.4006 37.3281 56.4006L37.3287 56.4Z" fill="black"/>
<path d="M81.077 63.0471C73.0042 71.12 72.6847 78.5831 77.0877 82.9861C81.4907 87.3932 88.9509 87.0729 97.0267 78.9969C105.104 70.92 103.675 56.3986 103.675 56.3986C103.675 56.3986 89.1499 54.9697 81.0764 63.0465L81.077 63.0471Z" fill="black"/>
</svg>
